<svg
  width="60"
  height="24"
  viewBox="0 0 60 24"
>
  <path d="M13.505 10.0985C13.9191 9.63509 14.3533 9.19818 14.8074 8.78775C15.3685 8.21845 15.9496 7.69549 16.5507 7.21887C17.1651 6.74224 17.813 6.31858 18.4943 5.94787C18.8149 5.80223 19.1488 5.6566 19.4961 5.51096C19.8568 5.36533 20.2175 5.25941 20.5781 5.19321C20.6449 5.17997 20.7184 5.17336 20.7985 5.17336C20.8787 5.16012 20.9455 5.16674 20.9989 5.19321C21.0524 5.21969 21.0323 5.25941 20.9388 5.31237C20.8587 5.35209 20.8119 5.38519 20.7985 5.41167C20.6516 5.4911 20.5113 5.56392 20.3778 5.63012C20.2575 5.69632 20.124 5.76913 19.977 5.84857C19.3225 6.23252 18.6946 6.66943 18.0935 7.15929C17.4924 7.64915 16.918 8.17873 16.3703 8.74803C15.7692 9.34381 15.1948 9.97931 14.6471 10.6545C14.1128 11.3165 13.6119 12.0116 13.1444 12.7398C12.6368 13.4547 12.1625 14.2027 11.7217 14.9839C11.2809 15.765 10.8935 16.5925 10.5596 17.4663C10.426 17.8105 10.2991 18.2011 10.1789 18.638C10.072 19.0749 10.0186 19.5052 10.0186 19.9288C10.0319 20.3525 10.1254 20.7365 10.2991 21.0807C10.4727 21.4249 10.78 21.6632 11.2208 21.7956C11.6483 21.9413 12.0824 21.9677 12.5232 21.8751C12.9774 21.7824 13.4048 21.65 13.8056 21.4779C14.5136 21.1734 15.1748 20.796 15.7893 20.3459C16.4171 19.909 17.0249 19.4324 17.6126 18.916C18.4676 18.2011 19.3559 17.3935 20.2776 16.4932C21.2126 15.5796 22.1143 14.6065 22.9826 13.5739C23.8642 12.5412 24.6657 11.4621 25.3871 10.3368C26.1217 9.19818 26.7162 8.03972 27.1704 6.8614C27.2906 6.57013 27.3908 6.25238 27.4709 5.90815C27.5644 5.56392 27.6112 5.22631 27.6112 4.89532C27.6245 4.5511 27.5778 4.22673 27.4709 3.92222C27.364 3.60447 27.1837 3.32644 26.9299 3.08813C26.596 2.79686 26.2286 2.60488 25.8279 2.51221C25.4271 2.40629 25.0197 2.35995 24.6056 2.37319C24.1915 2.39967 23.7774 2.45925 23.3633 2.55192C22.9626 2.6446 22.5685 2.76376 22.1811 2.90939C21.4197 3.13446 20.6783 3.41249 19.957 3.74348C19.249 4.07447 18.5544 4.4518 17.8731 4.87547C17.2052 5.29913 16.5841 5.7559 16.0097 6.24576C15.4486 6.73562 14.8742 7.24535 14.2865 7.77493C14.2464 7.80141 14.1997 7.83451 14.1462 7.87422C14.1061 7.9007 14.0661 7.92056 14.026 7.9338C13.9726 7.94704 13.9592 7.92056 13.9859 7.85436C14.026 7.78817 14.046 7.74845 14.046 7.73521C14.3132 7.23211 14.6405 6.75548 15.0279 6.30534C15.4152 5.85519 15.8093 5.43815 16.21 5.0542C16.8112 4.47166 17.4523 3.96194 18.1336 3.52503C18.8282 3.07489 19.5562 2.69094 20.3177 2.37319C21.0791 2.06868 21.8672 1.85023 22.682 1.71783C23.4969 1.5722 24.305 1.55896 25.1065 1.67811C25.4939 1.74431 25.8813 1.84361 26.2687 1.976C26.6561 2.1084 27.0034 2.32685 27.3106 2.63136C27.6179 2.92263 27.8516 3.26686 28.0119 3.66405C28.1856 4.06123 28.2924 4.47828 28.3325 4.91518C28.3859 5.69632 28.2991 6.51055 28.072 7.35788C27.8449 8.20521 27.531 9.0393 27.1303 9.86016C26.7429 10.681 26.3021 11.4688 25.8078 12.2234C25.3136 12.9781 24.8327 13.6599 24.3652 14.2689C23.8308 14.9839 23.2631 15.6591 22.662 16.2946C22.0742 16.9301 21.4598 17.5457 20.8186 18.1415C20.2709 18.6578 19.6831 19.1742 19.0553 19.6905C18.4275 20.2201 17.7663 20.7034 17.0716 21.1403C16.3904 21.5772 15.6824 21.9545 14.9477 22.2722C14.2264 22.59 13.4917 22.8084 12.7436 22.9276C12.2761 23.007 11.8086 23.007 11.341 22.9276C10.8868 22.8614 10.4661 22.6827 10.0787 22.3914C9.75809 22.1134 9.51764 21.789 9.35734 21.4183C9.2104 21.0608 9.1169 20.6769 9.07682 20.2664C9.03675 19.856 9.03675 19.439 9.07682 19.0153C9.13026 18.5916 9.20373 18.1812 9.29723 17.784C9.51096 16.9102 9.80484 16.0629 10.1789 15.242C10.5529 14.4079 10.9737 13.6136 11.4412 12.8589C11.882 12.1705 12.3562 11.5085 12.8638 10.873C12.4765 10.9657 12.0958 11.0451 11.7217 11.1113C10.9737 11.2569 10.2189 11.3695 9.45753 11.4489C9.45753 11.4621 9.45085 11.4754 9.43749 11.4886C8.34213 12.7861 7.2668 14.0703 6.21151 15.3413C5.15622 16.6123 4.07422 17.8833 2.9655 19.1543C2.56475 19.6045 2.16401 20.0612 1.76327 20.5246C1.37588 20.988 0.961782 21.4249 0.520966 21.8353C0.507608 21.8486 0.49425 21.8618 0.480891 21.8751L0.440817 21.8949L0.42078 21.9346L0.240445 22.0935C0.187013 22.1332 0.133581 22.1663 0.0801489 22.1928C0.0267165 22.2193 0 22.2127 0 22.1729C0 22.0935 0.0200372 22.0141 0.0601114 21.9346C0.113544 21.842 0.160297 21.7625 0.200371 21.6963C0.507607 21.1932 0.821523 20.7034 1.14212 20.2267L2.14397 18.8167C3.13247 17.453 4.12097 16.1158 5.10947 14.8051C5.93767 13.7062 6.77923 12.6074 7.63415 11.5085C7.50057 11.5085 7.37367 11.4952 7.25344 11.4688C7.06643 11.429 6.94621 11.3562 6.89277 11.2503C6.8527 11.1576 6.91949 11.0782 7.09315 11.012C7.2668 10.9326 7.48053 10.8664 7.73433 10.8134C7.92135 10.7604 8.10836 10.7141 8.29538 10.6744L9.71801 8.90691L11.2809 6.94084L12.8638 5.01448L16.2702 1.20149C16.4171 1.04261 16.5774 0.89036 16.751 0.744725C16.7644 0.731486 16.8312 0.678528 16.9514 0.58585L17.3321 0.287961C17.4657 0.182044 17.5926 0.102607 17.7128 0.0496483C17.8331 -0.0165494 17.9065 -0.0165494 17.9332 0.0496483C17.96 0.115846 17.9466 0.215143 17.8932 0.347538C17.8531 0.466694 17.793 0.605709 17.7128 0.764584C17.6327 0.910219 17.5459 1.04923 17.4523 1.18163C17.3588 1.31403 17.292 1.41332 17.252 1.47952L16.3503 2.77038C16.2434 2.90277 16.1499 3.02855 16.0698 3.1477C16.003 3.25362 15.9295 3.35292 15.8494 3.44559C15.7826 3.53827 15.7292 3.61109 15.6891 3.66405C15.1815 4.33926 14.6672 5.00124 14.1462 5.64998C13.6386 6.28548 13.1243 6.94084 12.6034 7.61605L11.0405 9.54241C10.8134 9.82044 10.5863 10.0985 10.3592 10.3765L10.6598 10.3368C11.0071 10.2971 11.341 10.264 11.6616 10.2375C11.9822 10.1978 12.256 10.1713 12.4831 10.158C12.6835 10.1316 12.9106 10.1117 13.1644 10.0985H13.505Z" fill="currentColor"/>
  <path d="M59.8969 1.95614C59.9771 2.08854 60.0105 2.23417 59.9971 2.39305C59.9971 2.53868 59.9504 2.6777 59.8569 2.81009C59.5229 3.247 59.1689 3.67729 58.7949 4.10095C58.4209 4.51138 58.0669 4.92842 57.7329 5.35209C57.2521 5.94787 56.7712 6.55027 56.2903 7.15929C55.8094 7.75507 55.3352 8.36409 54.8676 8.98635C53.9726 10.1514 53.091 11.3297 52.2227 12.5213C51.3545 13.7129 50.5262 14.9375 49.7381 16.1953C49.3374 16.8175 48.95 17.453 48.576 18.1018C48.2019 18.7373 47.868 19.3993 47.5741 20.0877C47.4539 20.3922 47.347 20.6967 47.2535 21.0012C47.16 21.319 47.0865 21.6434 47.0331 21.9743C47.0198 22.0008 47.0131 22.067 47.0131 22.1729C47.0131 22.2789 46.993 22.3384 46.953 22.3517C46.8995 22.3649 46.8528 22.3252 46.8127 22.2325C46.786 22.1531 46.7659 22.1001 46.7526 22.0736C46.6858 21.9148 46.6457 21.7427 46.6324 21.5573C46.619 21.3852 46.619 21.2065 46.6324 21.0211C46.6992 20.3062 46.8528 19.6177 47.0932 18.9557C47.347 18.2805 47.6275 17.6252 47.9348 16.9897C48.242 16.3409 48.5693 15.712 48.9166 15.103C49.2773 14.494 49.6446 13.8916 50.0186 13.2958C50.4461 12.6206 50.9203 11.9189 51.4413 11.1907C51.9622 10.4493 52.4966 9.71452 53.0442 8.98635C53.6053 8.24493 54.1597 7.52338 54.7073 6.82168C55.2684 6.11998 55.796 5.45801 56.2903 4.83575C55.7693 5.17997 55.2149 5.57054 54.6272 6.00745C54.0528 6.43111 53.465 6.86802 52.8639 7.31816C52.2628 7.75507 51.6684 8.19197 51.0806 8.62888C50.5062 9.06578 49.9719 9.46297 49.4776 9.82044C48.222 10.734 46.9997 11.6607 45.8108 12.6007C44.622 13.5408 43.4732 14.547 42.3645 15.6194C41.8702 16.0827 41.396 16.566 40.9418 17.0691C40.501 17.5722 40.1069 18.115 39.7596 18.6976C39.7196 18.7638 39.6795 18.83 39.6394 18.8962C39.5993 18.9623 39.5659 19.0285 39.5392 19.0947C39.4591 19.1874 39.399 19.1742 39.3589 19.055C39.3322 18.9226 39.3255 18.8233 39.3389 18.7571C39.4056 18.3202 39.5125 17.8899 39.6594 17.4663C39.8197 17.0426 39.9667 16.6189 40.1003 16.1953C40.6747 14.6727 41.3225 13.2031 42.0439 11.7865C42.7786 10.3566 43.54 8.90029 44.3281 7.41746C42.0038 9.6417 39.7463 11.9057 37.5555 14.2093C35.3648 16.513 33.2208 18.8763 31.1236 21.2991C30.8698 21.5772 30.6227 21.8486 30.3822 22.1134C30.1418 22.3914 29.8947 22.6694 29.6409 22.9475C29.5741 23.0269 29.4806 23.1262 29.3604 23.2453C29.2401 23.3645 29.1266 23.477 29.0197 23.583C28.8995 23.7021 28.7993 23.8014 28.7192 23.8808C28.6257 23.9603 28.5722 24 28.5589 24C28.5322 24 28.5388 23.9603 28.5789 23.8808C28.6056 23.8014 28.6457 23.7087 28.6991 23.6028C28.7392 23.5101 28.7926 23.4108 28.8594 23.3049C28.9262 23.199 28.9796 23.113 29.0197 23.0468C29.3136 22.5834 29.6142 22.1266 29.9214 21.6765C30.242 21.2263 30.5759 20.7762 30.9233 20.326C31.8583 19.0683 32.8268 17.837 33.8286 16.6322C34.8305 15.4274 35.8724 14.2424 36.9544 13.0774C39.0917 10.7472 41.3359 8.5031 43.6869 6.34506C43.9941 6.05379 44.2947 5.77576 44.5886 5.51096C44.8825 5.24617 45.183 4.98138 45.4903 4.71659C45.6105 4.62391 45.7307 4.53786 45.8509 4.45842C45.9711 4.37898 46.1181 4.3525 46.2917 4.37898C46.4387 4.4187 46.5656 4.49814 46.6724 4.61729C46.7793 4.73645 46.8327 4.86885 46.8327 5.01448C46.8327 5.1204 46.8127 5.21307 46.7726 5.29251C46.7326 5.35871 46.6925 5.43153 46.6524 5.51096C46.3318 6.13322 45.9979 6.74886 45.6505 7.35788C45.3166 7.9669 44.976 8.59578 44.6287 9.24452C43.9207 10.5288 43.2194 11.8262 42.5248 13.1369C41.8301 14.4344 41.1489 15.7451 40.481 17.0691C41.0821 16.182 41.7633 15.3546 42.5248 14.5867C43.2862 13.8055 44.0676 13.0509 44.8691 12.3227C46.6724 10.6942 48.5225 9.15846 50.4194 7.71535C52.3296 6.27224 54.2799 4.85561 56.2702 3.46545C56.6576 3.17418 57.0717 2.89615 57.5125 2.63136C57.9533 2.36657 58.3741 2.08192 58.7749 1.77741C58.9085 1.69797 59.0487 1.65163 59.1957 1.63839C59.3159 1.61192 59.4428 1.62516 59.5764 1.67811C59.7099 1.73107 59.8168 1.82375 59.8969 1.95614Z" fill="currentColor"/>
</svg>