<svg
  viewBox="0 0 40 40"
  fill="none"
  xmlns="http://www.w3.org/2000/svg"
  >
  <rect x="1" y="1" width="38" height="38" rx="19" stroke="currentColor" stroke-width="2"/>
  <path d="M31.453 13.9494C31.6179 13.4025 31.453 13 30.66 13H28.0358C27.3675 13 27.06 13.3456 26.8952 13.7306C26.8952 13.7306 25.5586 16.9287 23.6695 19.0025C23.0591 19.6019 22.7784 19.7944 22.4443 19.7944C22.2794 19.7944 22.0255 19.6019 22.0255 19.055V13.9494C22.0255 13.2931 21.8384 13 21.2859 13H17.1602C16.7414 13 16.4919 13.3062 16.4919 13.5906C16.4919 14.2119 17.4365 14.3562 17.5345 16.1062V19.9038C17.5345 20.735 17.383 20.8881 17.0488 20.8881C16.1578 20.8881 13.9925 17.6769 12.7093 14.0019C12.4509 13.2888 12.197 13 11.5242 13H8.89998C8.15148 13 8 13.3456 8 13.7306C8 14.4131 8.89107 17.8038 12.1479 22.2838C14.3177 25.3419 17.3741 27 20.1542 27C21.825 27 22.0299 26.6325 22.0299 25.9981C22.0299 23.0756 21.8785 22.8 22.7161 22.8C23.1037 22.8 23.772 22.9925 25.3314 24.4669C27.1135 26.2169 27.4076 27 28.4056 27H31.0298C31.7783 27 32.157 26.6325 31.9387 25.9062C31.4397 24.3794 28.067 21.2381 27.9155 21.0281C27.5279 20.5381 27.6392 20.3194 27.9155 19.8819C27.9199 19.8775 31.1233 15.45 31.453 13.9494V13.9494Z" fill="currentColor"/>
</svg>