<svg width="40" height="40" viewBox="0 0 40 40" fill="none" xmlns="http://www.w3.org/2000/svg">
<rect width="40" height="40" fill="#35373E"/>
<path d="M19.2922 18.1793C19.7304 17.5745 20.1898 17.0043 20.6705 16.4687C21.2642 15.7257 21.8792 15.0432 22.5153 14.4212C23.1656 13.7991 23.8512 13.2462 24.5722 12.7624C24.9115 12.5724 25.2649 12.3823 25.6324 12.1922C26.0141 12.0022 26.3958 11.8639 26.7775 11.7775C26.8482 11.7603 26.926 11.7516 27.0108 11.7516C27.0956 11.7343 27.1663 11.743 27.2228 11.7775C27.2794 11.8121 27.2582 11.8639 27.1592 11.933C27.0744 11.9849 27.0249 12.0281 27.0108 12.0626C26.8553 12.1663 26.7068 12.2613 26.5655 12.3477C26.4382 12.4341 26.2969 12.5292 26.1414 12.6328C25.4487 13.1339 24.7842 13.7041 24.1481 14.3434C23.5119 14.9827 22.9041 15.6739 22.3245 16.4168C21.6883 17.1944 21.0804 18.0238 20.5008 18.905C19.9354 19.7689 19.4053 20.676 18.9105 21.6263C18.3733 22.5594 17.8714 23.5356 17.4049 24.5551C16.9384 25.5745 16.5284 26.6544 16.175 27.7948C16.0337 28.2441 15.8994 28.7538 15.7721 29.324C15.659 29.8942 15.6025 30.4557 15.6025 31.0086C15.6166 31.5616 15.7156 32.0626 15.8994 32.5119C16.0831 32.9611 16.4083 33.2721 16.8748 33.4449C17.3272 33.635 17.7866 33.6695 18.2531 33.5486C18.7338 33.4276 19.1861 33.2549 19.6102 33.0302C20.3595 32.6328 21.0592 32.1404 21.7095 31.5529C22.3739 30.9827 23.0172 30.3607 23.6392 29.6868C24.5439 28.7538 25.484 27.6998 26.4594 26.5248C27.449 25.3326 28.4032 24.0626 29.3221 22.7149C30.2551 21.3672 31.1033 19.959 31.8667 18.4903C32.6442 17.0043 33.2733 15.4924 33.754 13.9546C33.8812 13.5745 33.9872 13.1598 34.072 12.7106C34.171 12.2613 34.2205 11.8207 34.2205 11.3888C34.2346 10.9395 34.1851 10.5162 34.072 10.1188C33.9589 9.7041 33.7681 9.34125 33.4995 9.03024C33.1461 8.65011 32.7573 8.39957 32.3332 8.27862C31.9091 8.14039 31.478 8.07991 31.0397 8.09719C30.6015 8.13175 30.1632 8.2095 29.725 8.33045C29.3009 8.4514 28.8839 8.60691 28.4739 8.79698C27.6681 9.09071 26.8835 9.45356 26.1202 9.88553C25.3709 10.3175 24.6358 10.8099 23.9148 11.3629C23.208 11.9158 22.5507 12.5119 21.9428 13.1512C21.349 13.7905 20.7412 14.4557 20.1192 15.1469C20.0767 15.1814 20.0273 15.2246 19.9707 15.2765C19.9283 15.311 19.8859 15.3369 19.8435 15.3542C19.7869 15.3715 19.7728 15.3369 19.8011 15.2505C19.8435 15.1641 19.8647 15.1123 19.8647 15.095C20.1474 14.4384 20.4938 13.8164 20.9037 13.2289C21.3137 12.6415 21.7307 12.0972 22.1548 11.5961C22.791 10.8359 23.4695 10.1706 24.1905 9.60043C24.9256 9.01296 25.6961 8.51188 26.5019 8.09719C27.3076 7.69978 28.1417 7.41469 29.004 7.2419C29.8664 7.05184 30.7216 7.03456 31.5698 7.19006C31.9798 7.27646 32.3898 7.40605 32.7997 7.57883C33.2097 7.75162 33.5772 8.03672 33.9024 8.43412C34.2275 8.81425 34.4749 9.2635 34.6446 9.78186C34.8283 10.3002 34.9414 10.8445 34.9838 11.4147C35.0404 12.4341 34.9485 13.4968 34.7082 14.6026C34.4679 15.7084 34.1356 16.797 33.7115 17.8682C33.3016 18.9395 32.8351 19.9676 32.312 20.9525C31.789 21.9374 31.28 22.8272 30.7853 23.622C30.2198 24.5551 29.619 25.4363 28.9828 26.2657C28.3608 27.095 27.7105 27.8985 27.032 28.676C26.4524 29.3499 25.8304 30.0238 25.1659 30.6976C24.5015 31.3888 23.8018 32.0194 23.0666 32.5896C22.3457 33.1598 21.5964 33.6523 20.8189 34.067C20.0555 34.4816 19.278 34.7667 18.4864 34.9222C17.9916 35.0259 17.4968 35.0259 17.002 34.9222C16.5214 34.8359 16.0761 34.6026 15.6661 34.2225C15.3268 33.8596 15.0724 33.4363 14.9027 32.9525C14.7472 32.486 14.6483 31.9849 14.6059 31.4492C14.5634 30.9136 14.5634 30.3693 14.6059 29.8164C14.6624 29.2635 14.7402 28.7279 14.8391 28.2095C15.0653 27.0691 15.3763 25.9633 15.7721 24.892C16.168 23.8035 16.6133 22.7667 17.108 21.7819C17.5746 20.8834 18.0764 20.0194 18.6136 19.1901C18.2036 19.311 17.8007 19.4147 17.4049 19.5011C16.6133 19.6911 15.8145 19.838 15.0088 19.9417C15.0088 19.959 15.0017 19.9762 14.9875 19.9935C13.8283 21.6868 12.6903 23.3628 11.5735 25.0216C10.4567 26.6803 9.31168 28.3391 8.13834 29.9978C7.71424 30.5853 7.29014 31.1814 6.86604 31.7862C6.45607 32.3909 6.01784 32.9611 5.55133 33.4968C5.53719 33.514 5.52306 33.5313 5.50892 33.5486L5.46651 33.5745L5.4453 33.6263L5.25446 33.8337C5.19791 33.8855 5.14137 33.9287 5.08482 33.9633C5.02827 33.9978 5 33.9892 5 33.9374C5 33.8337 5.02121 33.73 5.06361 33.6263C5.12016 33.5054 5.16964 33.4017 5.21205 33.3153C5.53719 32.6587 5.8694 32.0194 6.20868 31.3974L7.26893 29.5572C8.31505 27.7775 9.36116 26.0324 10.4073 24.3218C11.2837 22.8877 12.1744 21.4536 13.0791 20.0194C12.9377 20.0194 12.8034 20.0022 12.6762 19.9676C12.4783 19.9158 12.3511 19.8207 12.2945 19.6825C12.2521 19.5616 12.3228 19.4579 12.5066 19.3715C12.6903 19.2678 12.9165 19.1814 13.1851 19.1123C13.383 19.0432 13.5809 18.9827 13.7789 18.9309L15.2844 16.6242L16.9384 14.0583L18.6136 11.5443L22.2184 6.56804C22.3739 6.36069 22.5436 6.16199 22.7274 5.97192C22.7415 5.95464 22.8122 5.88553 22.9394 5.76458L23.3423 5.37581C23.4837 5.23758 23.618 5.13391 23.7452 5.06479C23.8724 4.9784 23.9502 4.9784 23.9785 5.06479C24.0067 5.15119 23.9926 5.28078 23.936 5.45356C23.8936 5.60907 23.83 5.7905 23.7452 5.99784C23.6604 6.1879 23.5685 6.36933 23.4695 6.54212C23.3706 6.7149 23.2999 6.84449 23.2575 6.93089L22.3033 8.61555C22.1902 8.78834 22.0912 8.95248 22.0064 9.10799C21.9357 9.24622 21.858 9.37581 21.7731 9.49676C21.7025 9.61771 21.6459 9.71274 21.6035 9.78186C21.0663 10.6631 20.522 11.527 19.9707 12.3736C19.4335 13.203 18.8893 14.0583 18.3379 14.9395L16.6839 17.4536C16.4436 17.8164 16.2033 18.1793 15.963 18.5421L16.2811 18.4903C16.6486 18.4384 17.002 18.3952 17.3413 18.3607C17.6806 18.3089 17.9704 18.2743 18.2107 18.257C18.4228 18.2225 18.6631 18.1965 18.9317 18.1793H19.2922Z" fill="#BCBDBE"/>
</svg>
