<svg
  viewBox="0 0 40 40"
  fill="none"
  xmlns="http://www.w3.org/2000/svg"
>
  <rect x="1" y="1" width="38" height="38" rx="19" stroke="currentColor" stroke-width="2"/>
  <path d="M14.5931 10.9291C14.1877 10.0457 13.7608 10.0276 13.3752 10.0124C13.0596 9.99906 12.6983 10 12.338 10C11.9767 10 11.3906 10.1328 10.8948 10.6635C10.3985 11.1947 9 12.478 9 15.0883C9 17.6991 10.94 20.2214 11.21 20.576C11.4809 20.9297 14.9549 26.4578 20.4563 28.5845C25.0287 30.3519 25.9596 30.0006 26.9516 29.9121C27.9442 29.8235 30.1542 28.6288 30.6053 27.3898C31.0564 26.1508 31.0564 25.0889 30.9214 24.8675C30.7859 24.6462 30.4251 24.5134 29.8837 24.2483C29.3422 23.9827 26.6812 22.6994 26.1849 22.5223C25.6886 22.3453 25.3278 22.2572 24.9665 22.7884C24.6057 23.3192 23.569 24.5139 23.2533 24.8675C22.9377 25.2222 22.6215 25.2664 22.0806 25.0008C21.5391 24.7347 19.7958 24.175 17.7277 22.3676C16.1184 20.9611 15.0321 19.2247 14.7165 18.6935C14.4008 18.1628 14.683 17.8757 14.9539 17.6111C15.1972 17.3736 15.4954 16.9918 15.7663 16.682C16.0363 16.3721 16.1267 16.1508 16.3068 15.7971C16.4875 15.443 16.3971 15.1331 16.2617 14.8675C16.1262 14.6019 15.0744 11.9782 14.5931 10.9291Z" fill="currentColor"/>
</svg>